:FULLY-SPECIFIED
:FORCE-ALL-JOINTS-BE-3DOF
:DEGREES
2752
root -5.55334 13.9703 -28.3997 161.941 -65.1731 -161.068
lfemur -59.2576 42.8114 -6.29041
ltibia 67.5255 -0 0
lfoot -2.31458 -1.14314 0.00125489
ltoes -31.3787 0 0
rfemur -30.9131 -18.4887 21.7441
rtibia 81.5725 -0 0
rfoot -34.8113 -24.7186 0.00130587
rtoes -14.4635 0 0
lowerback 15.7988 5.82399 0.577619
upperback -3.98891 8.13569 1.49109
thorax -13.4651 3.8052 -0.873361
lowerneck -2.41874 9.61838 2.07466
upperneck 7.46321 12.5843 1.97348
head 2.79104 6.35212 0.683638
lclavicle 1.19519e-14 -1.59028e-15 0
lhumerus 3.52153 10.6133 83.9521
lradius 94.8672 -0 0
lwrist -19.1028 0 0
lhand -39.8113 27.6373 1.49134e-05
lfingers 7.12502 -0 0
lthumb -12.7858 57.2265 1.45719e-05
rclavicle 1.19519e-14 -1.59028e-15 0
rhumerus -57.7664 51.028 -110.098
rradius 114.04 -0 0
rwrist -84.7111 0 0
rhand 4.53482 -27.0131 0.000211935
rfingers 7.12502 -0 0
rthumb 29.9262 -54.6135 0.000277034
2753
root -5.56213 13.9602 -28.4066 161.953 -65.1797 -161.079
lfemur -59.2956 42.843 -6.2847
ltibia 67.6079 -0 0
lfoot -2.34382 -1.1818 0.00189838
ltoes -31.3437 0 0
rfemur -30.9083 -18.4983 21.7343
rtibia 81.6341 -0 0
rfoot -34.8721 -24.7379 0.00197551
rtoes -14.4541 0 0
lowerback 15.7854 5.8236 0.570973
upperback -3.99495 8.1339 1.49206
thorax -13.4652 3.80507 -0.867157
lowerneck -2.42105 9.61782 2.07911
upperneck 7.47858 12.5837 1.97338
head 2.79656 6.35181 0.684037
lclavicle 1.19519e-14 -1.59028e-15 0
lhumerus 3.51806 10.6287 83.9519
lradius 94.8609 -0 0
lwrist -19.0661 0 0
lhand -39.8094 27.6445 2.25608e-05
lfingers 7.12502 -0 0
lthumb -12.784 57.2337 2.20441e-05
rclavicle 1.19519e-14 -1.59028e-15 0
rhumerus -57.7769 51.0144 -110.109
rradius 114.033 -0 0
rwrist -84.7469 0 0
rhand 4.55478 -27.0036 0.000320612
rfingers 7.12502 -0 0
rthumb 29.9452 -54.6004 0.000419093
2754
root -5.57092 13.9501 -28.4135 161.966 -65.1875 -161.093
lfemur -59.3408 42.8806 -6.27795
ltibia 67.7059 -0 0
lfoot -2.37857 -1.22776 0.00263772
ltoes -31.3478 0 0
rfemur -30.9026 -18.5098 21.7227
rtibia 81.7074 -0 0
rfoot -34.9443 -24.7609 0.0027449
rtoes -14.4914 0 0
lowerback 15.7696 5.82314 0.563073
upperback -4.00213 8.13176 1.49321
thorax -13.4654 3.80493 -0.859781
lowerneck -2.4233 9.61726 2.08343
upperneck 7.49686 12.5829 1.97325
head 2.80312 6.35145 0.684511
lclavicle 1.19519e-14 -1.59028e-15 0
lhumerus 3.51394 10.647 83.9516
lradius 94.8535 -0 0
lwrist -19.0704 0 0
lhand -39.8072 27.6529 3.13471e-05
lfingers 7.12502 -0 0
lthumb -12.7818 57.2423 3.06292e-05
rclavicle 1.19519e-14 -1.59028e-15 0
rhumerus -57.7894 50.9982 -110.122
rradius 114.026 -0 0
rwrist -84.7427 0 0
rhand 4.57852 -26.9922 0.000445476
rfingers 7.12502 -0 0
rthumb 29.9678 -54.5848 0.00058231
2755
root -5.57971 13.9399 -28.4205 161.982 -65.1965 -161.109
lfemur -59.3927 42.9237 -6.27024
ltibia 67.8184 -0 0
lfoot -2.41848 -1.28055 0.00345252
ltoes -31.3526 0 0
rfemur -30.8961 -18.5231 21.7094
rtibia 81.7915 -0 0
rfoot -35.0272 -24.7874 0.00359282
rtoes -14.4872 0 0
lowerback 15.7515 5.8226 0.553998
upperback -4.01038 8.12931 1.49454
thorax -13.4657 3.80476 -0.851309
lowerneck -2.42548 9.61673 2.08764
upperneck 7.51786 12.582 1.97311
head 2.81065 6.35103 0.685056
lclavicle 1.19519e-14 -1.59028e-15 0
lhumerus 3.50921 10.6679 83.9512
lradius 94.8449 -0 0
lwrist -19.0753 0 0
lhand -39.8046 27.6627 4.10302e-05
lfingers 7.12502 -0 0
lthumb -12.7794 57.2522 4.00905e-05
rclavicle 1.19519e-14 -1.59028e-15 0
rhumerus -57.8037 50.9796 -110.137
rradius 114.02 -0 0
rwrist -84.7379 0 0
rhand 4.60578 -26.9792 0.000583083
rfingers 7.12502 -0 0
rthumb 29.9938 -54.5669 0.000762186
